<svg width="30" height="30" viewBox="0 0 30 30" fill="none" xmlns="http://www.w3.org/2000/svg">
<path d="M19.6926 22.1228H11.5552C11.4113 22.1228 11.2733 22.1821 11.1716 22.2876C11.0699 22.3931 11.0127 22.5362 11.0127 22.6855V29.4373C11.0127 29.5866 11.0699 29.7297 11.1716 29.8352C11.2733 29.9407 11.4113 30 11.5552 30H19.6926C19.8364 30 19.9744 29.9407 20.0762 29.8352C20.1779 29.7297 20.235 29.5866 20.235 29.4373V22.6855C20.235 22.5362 20.1779 22.3931 20.0762 22.2876C19.9744 22.1821 19.8364 22.1228 19.6926 22.1228ZM19.1501 28.8747H12.0977V23.2481H15.0814V23.8108C15.0814 23.96 15.1385 24.1031 15.2403 24.2086C15.342 24.3142 15.48 24.3734 15.6239 24.3734C15.7677 24.3734 15.9057 24.3142 16.0075 24.2086C16.1092 24.1031 16.1664 23.96 16.1664 23.8108V23.2481H19.1501V28.8747Z" fill="#E31E24"/>
<path d="M29.4572 22.1228H21.3198C21.176 22.1228 21.038 22.1821 20.9362 22.2876C20.8345 22.3931 20.7773 22.5362 20.7773 22.6855V29.4373C20.7773 29.5866 20.8345 29.7297 20.9362 29.8352C21.038 29.9407 21.176 30 21.3198 30H29.4572C29.6011 30 29.7391 29.9407 29.8408 29.8352C29.9425 29.7297 29.9997 29.5866 29.9997 29.4373V22.6855C29.9997 22.5362 29.9425 22.3931 29.8408 22.2876C29.7391 22.1821 29.6011 22.1228 29.4572 22.1228ZM28.9147 28.8747H21.8623V23.2481H24.846V23.8108C24.846 23.96 24.9032 24.1031 25.0049 24.2086C25.1067 24.3142 25.2446 24.3734 25.3885 24.3734C25.5324 24.3734 25.6704 24.3142 25.7721 24.2086C25.8739 24.1031 25.931 23.96 25.931 23.8108V23.2481H28.9147V28.8747Z" fill="#E31E24"/>
<path d="M29.4572 13.683H21.3198C21.176 13.683 21.038 13.7423 20.9362 13.8478C20.8345 13.9533 20.7773 14.0964 20.7773 14.2456V20.9975C20.7773 21.1467 20.8345 21.2899 20.9362 21.3954C21.038 21.5009 21.176 21.5602 21.3198 21.5602H29.4572C29.6011 21.5602 29.7391 21.5009 29.8408 21.3954C29.9425 21.2899 29.9997 21.1467 29.9997 20.9975V14.2456C29.9997 14.0964 29.9425 13.9533 29.8408 13.8478C29.7391 13.7423 29.6011 13.683 29.4572 13.683ZM28.9147 20.4349H21.8623V14.8083H24.846V15.371C24.846 15.5202 24.9032 15.6633 25.0049 15.7688C25.1067 15.8743 25.2446 15.9336 25.3885 15.9336C25.5324 15.9336 25.6704 15.8743 25.7721 15.7688C25.8739 15.6633 25.931 15.5202 25.931 15.371V14.8083H28.9147V20.4349Z" fill="#E31E24"/>
<path d="M21.2496 12.5408C21.3189 12.5218 21.3839 12.4889 21.4408 12.4438C21.4977 12.3987 21.5454 12.3423 21.5812 12.278C21.617 12.2136 21.6402 12.1426 21.6494 12.0689C21.6586 11.9952 21.6536 11.9204 21.6348 11.8487L21.1574 9.99755L22.7849 8.57403L22.8283 8.53465C23.9124 7.35097 24.7231 5.92723 25.199 4.37099C25.5744 3.13889 25.7306 1.84626 25.6601 0.556173C25.6526 0.420325 25.5979 0.291887 25.5062 0.194643C25.4144 0.0973999 25.2918 0.03794 25.161 0.0272752C23.9347 -0.065179 22.7025 0.077881 21.5263 0.449268C19.9806 0.948864 18.5725 1.82473 17.4196 3.00373L16.0417 4.6917L12.8302 3.78582C12.9312 3.6804 12.9879 3.5378 12.9879 3.38915C12.9879 3.2405 12.9312 3.0979 12.8302 2.99248C12.7797 2.93974 12.7197 2.89788 12.6536 2.86932C12.5875 2.84075 12.5166 2.82604 12.445 2.82604C12.3734 2.82604 12.3025 2.84075 12.2364 2.86932C12.1703 2.89788 12.1103 2.93974 12.0598 2.99248L11.6801 3.38634C11.6584 3.415 11.6384 3.44507 11.6204 3.47636L9.1792 2.79555L9.37449 2.59299C9.42534 2.54068 9.4657 2.47845 9.49324 2.40989C9.52078 2.34132 9.53496 2.26778 9.53496 2.1935C9.53496 2.11923 9.52078 2.04568 9.49324 1.97712C9.4657 1.90855 9.42534 1.84632 9.37449 1.79402C9.27285 1.68922 9.13535 1.6304 8.99204 1.6304C8.84872 1.6304 8.71122 1.68922 8.60958 1.79402L7.94774 2.4467L3.27689 1.15259C3.1615 1.11953 3.0388 1.12699 2.92792 1.17381C2.81704 1.22062 2.7242 1.30416 2.66388 1.41141L1.39987 3.74644C1.36325 3.81012 1.33913 3.88068 1.32888 3.95407C1.31864 4.02745 1.32249 4.10222 1.3402 4.17406C1.35936 4.24638 1.39226 4.314 1.43698 4.37294C1.4817 4.43188 1.53733 4.48095 1.6006 4.51728L11.4088 10.3126L5.98392 16.8957L1.35105 16.3837C1.25374 16.3731 1.15546 16.39 1.06665 16.4326C0.977829 16.4752 0.901772 16.5419 0.846533 16.6256L0.0924709 17.7622C0.0479644 17.8308 0.0185714 17.9087 0.00638228 17.9904C-0.0058068 18.0721 -0.000492561 18.1555 0.021947 18.2348C0.04337 18.3138 0.0811757 18.3869 0.132716 18.4491C0.184256 18.5113 0.248285 18.5611 0.320317 18.5949L4.389 20.4798L5.92425 22.0722L7.74159 26.2921C7.77422 26.3668 7.8222 26.4332 7.88218 26.4867C7.94215 26.5401 8.01267 26.5793 8.08879 26.6016C8.13729 26.6097 8.18676 26.6097 8.23526 26.6016C8.34502 26.6009 8.45232 26.5677 8.54448 26.5059L9.66744 25.7126C9.74908 25.6548 9.81396 25.575 9.85507 25.4818C9.89618 25.3886 9.91196 25.2855 9.90071 25.1837L9.40704 20.3898L14.6312 15.7592L15.7488 14.7689L18.6782 20.1029C18.7137 20.1673 18.761 20.2239 18.8176 20.2693C18.8743 20.3147 18.939 20.348 19.008 20.3674C19.0771 20.3867 19.1492 20.3917 19.2202 20.3821C19.2911 20.3724 19.3595 20.3483 19.4214 20.311C19.5455 20.2368 19.6363 20.1147 19.6739 19.9714C19.7115 19.828 19.6929 19.675 19.6221 19.5458L16.5896 14.0431L20.2406 10.8078L20.5878 12.1413C20.6247 12.2851 20.7151 12.4079 20.8391 12.4828C20.9632 12.5577 21.1108 12.5785 21.2496 12.5408ZM2.60963 3.79145L3.41794 2.35105L15.2442 5.62571L12.1249 9.41802L2.60963 3.79145ZM20.1918 9.373L15.5426 13.486L13.9151 14.9208L8.49023 19.7484C8.4234 19.8083 8.37166 19.8841 8.33952 19.9694C8.30737 20.0547 8.29579 20.1469 8.30579 20.2379L8.79403 24.9924L8.47396 25.2174L6.86276 21.5151C6.83513 21.4521 6.7965 21.3949 6.74884 21.3463L5.07254 19.6077C5.02693 19.5609 4.97366 19.5228 4.91522 19.4952L1.35647 17.841L1.57347 17.509L6.16295 18.0154C6.25069 18.0258 6.33954 18.0138 6.42179 17.9804C6.50404 17.9471 6.5772 17.8934 6.63491 17.8241L16.6276 5.6651L18.1791 3.78582C19.1982 2.74576 20.4427 1.97402 21.8084 1.5352C22.6985 1.24902 23.627 1.11226 24.5588 1.13008C24.5632 2.11699 24.4186 3.09852 24.1302 4.03902C23.7157 5.41816 23.0053 6.682 22.0525 7.73567L20.1918 9.373Z" fill="#E31E24"/>
<path d="M19.3781 7.32497L13.6223 12.4958C13.5187 12.595 13.4564 12.7321 13.4486 12.8781C13.4408 13.0241 13.4881 13.1675 13.5805 13.2779C13.6729 13.3884 13.8031 13.4572 13.9435 13.4698C14.084 13.4824 14.2237 13.4378 14.3329 13.3454L20.0888 8.17459C20.1924 8.07541 20.2547 7.93829 20.2625 7.79229C20.2703 7.6463 20.223 7.50288 20.1306 7.39243C20.0382 7.28198 19.908 7.21317 19.7675 7.20058C19.6271 7.18799 19.4874 7.2326 19.3781 7.32497Z" fill="#E31E24"/>
<path d="M7.85553 17.6835L6.77055 18.8088C6.66951 18.9142 6.61279 19.0568 6.61279 19.2054C6.61279 19.3541 6.66951 19.4967 6.77055 19.6021C6.87071 19.7081 7.0072 19.7688 7.15029 19.7709C7.22206 19.7706 7.29307 19.7555 7.35918 19.7265C7.4253 19.6976 7.48521 19.6553 7.53546 19.6021L8.62044 18.4768C8.70931 18.3692 8.75575 18.2307 8.75048 18.0891C8.74521 17.9475 8.68861 17.8132 8.59199 17.713C8.49538 17.6127 8.36586 17.554 8.22933 17.5486C8.0928 17.5431 7.95931 17.5913 7.85553 17.6835Z" fill="#E31E24"/>
</svg>
