<svg width="30" height="30" viewBox="0 0 30 30" fill="none" xmlns="http://www.w3.org/2000/svg">
<path d="M0.190212 24.6804L2.05976 26.0242C2.91753 26.6407 3.91574 26.9565 4.92278 26.9565C5.56632 26.9565 6.2135 26.8275 6.82984 26.5657L9.21941 25.5507C10.3344 25.077 11.5907 25.1289 12.6666 25.6927L12.7329 25.7275C14.1525 26.4715 15.8476 26.4715 17.2671 25.7275L17.3335 25.6927C18.4093 25.1289 19.6656 25.0771 20.7807 25.5507L23.1702 26.5657C24.7513 27.2372 26.5343 27.0347 27.9403 26.0241L29.8099 24.6803C30.0096 24.5368 30.06 24.2513 29.9227 24.0427C29.7853 23.834 29.5119 23.7812 29.3124 23.9248L27.4428 25.2686C26.2809 26.1039 24.8072 26.2711 23.5008 25.7162L23.311 25.6355C24.5251 23.4699 25.3297 21.324 25.7037 19.2496C25.7458 19.0164 25.6781 18.7734 25.5227 18.5998C25.4048 18.4681 25.2849 18.338 25.1639 18.2089L24.8244 14.9944C24.7832 14.6049 24.4693 14.3112 24.0942 14.3112H23.874L23.1443 10.3469C23.0801 9.99794 22.7867 9.74467 22.4466 9.74467H22.0866L21.8667 8.25953C21.8297 8.00932 21.6058 7.83827 21.3659 7.87648C21.1263 7.91518 20.9622 8.14943 20.9992 8.39971L21.1983 9.74467H18.8638L18.2583 5.65501H20.5928L20.7099 6.44581C20.7434 6.6723 20.9303 6.83424 21.1431 6.83424C21.1654 6.83424 21.188 6.83247 21.2107 6.8288C21.4502 6.79011 21.6143 6.55585 21.5773 6.30563L21.0262 2.58331C20.9581 2.12299 20.585 1.7889 20.1392 1.7889H17.6859L17.5386 0.794409C17.4705 0.334086 17.0974 0 16.6516 0H13.3484C12.9026 0 12.5295 0.334086 12.4614 0.794409L12.3141 1.7889H9.86079C9.41496 1.7889 9.04193 2.12299 8.97382 2.58331L7.91347 9.74473H7.55343C7.21334 9.74473 6.91995 9.998 6.85576 10.3469L6.12608 14.3112H6.05328C5.6782 14.3112 5.36427 14.605 5.32302 14.9946L5.00212 18.0327C4.82406 18.2191 4.64899 18.408 4.47736 18.5998C4.32201 18.7734 4.25424 19.0163 4.29632 19.2498C4.49094 20.3289 4.80505 21.4387 5.22986 22.5483C5.31986 22.7834 5.57545 22.8978 5.80032 22.8037C6.02537 22.7097 6.13485 22.4429 6.04486 22.2078C5.93397 21.9182 5.83198 21.6288 5.73719 21.3402C8.06315 18.9423 10.9575 17.01 14.5612 15.4501V25.3447C14.0665 25.2906 13.5795 25.1453 13.1265 24.9079L13.0601 24.8731C11.7583 24.1908 10.238 24.1282 8.88886 24.7013L7.5113 25.2864C7.25992 24.8434 7.02428 24.3995 6.81012 23.9625C6.6997 23.7371 6.43527 23.648 6.21947 23.7633C6.00372 23.8787 5.91835 24.155 6.02883 24.3804C6.23205 24.7952 6.45347 25.2156 6.68905 25.6356L6.49917 25.7162C5.19288 26.2711 3.71913 26.1039 2.5572 25.2687L0.687647 23.9249C0.487936 23.7814 0.21473 23.8342 0.077337 24.0428C-0.0600559 24.2513 -0.0094991 24.5368 0.190212 24.6804ZM21.1112 24.7013C19.762 24.1282 18.2416 24.1909 16.9399 24.8732L16.8735 24.908C16.4205 25.1454 15.9335 25.2907 15.4388 25.3447V15.4504C15.9625 15.6773 16.4747 15.9131 16.966 16.1547C17.1851 16.2625 17.4467 16.1641 17.5499 15.9351C17.6531 15.7059 17.5589 15.4328 17.3396 15.325C16.7316 15.026 16.0926 14.736 15.4388 14.4602V12.6726C19.3374 14.3604 22.413 16.4877 24.8257 19.1641C24.752 19.5605 24.6613 19.9599 24.5544 20.362C22.9765 18.7999 21.1229 17.4079 19.0313 16.2195C18.8184 16.0985 18.5519 16.1808 18.4361 16.4033C18.3203 16.6257 18.399 16.9041 18.612 17.0251C20.7759 18.2545 22.6748 19.7059 24.2621 21.3407C23.836 22.6365 23.2435 23.9561 22.4887 25.2865L21.1112 24.7013ZM24.1757 17.2139C23.436 16.5119 22.6444 15.8508 21.7979 15.2283H23.9659L24.1757 17.2139ZM12.8631 4.08013H17.1369L17.9756 9.74485H12.0243L12.8631 4.08013ZM20.1393 2.706C20.1491 2.706 20.1574 2.7134 20.1588 2.72361L20.4571 4.73821H18.1226L17.8217 2.70607L20.1393 2.706ZM13.3484 0.917162H16.6516C16.6613 0.917162 16.6698 0.924742 16.6712 0.934768L17.0011 3.16321H12.9988L13.3288 0.934707C13.3303 0.924498 13.3385 0.917162 13.3484 0.917162ZM9.86073 2.706H12.1783L11.8774 4.73815H9.54294L9.84124 2.72355C9.84271 2.7134 9.8509 2.706 9.86073 2.706ZM9.40712 5.65519H11.7416L11.1361 9.74485H8.80161L9.40712 5.65519ZM7.69158 10.6618H22.3084L22.9801 14.3113H20.4685C18.9127 13.3052 17.189 12.41 15.2794 11.6148C15.0988 11.5399 14.9001 11.5401 14.7199 11.6151C12.8106 12.4103 11.0871 13.3054 9.53147 14.3113H7.01989L7.69158 10.6618ZM6.18137 15.2283H8.20195C7.41767 15.805 6.68033 16.4148 5.98792 17.0597L6.18137 15.2283ZM5.44537 20.3592C5.33858 19.9574 5.24759 19.5584 5.17416 19.1641C7.58696 16.4877 10.6627 14.3603 14.5611 12.6726V14.4596C10.8616 16.0194 7.86947 17.9551 5.44537 20.3592Z" fill="#E31E24"/>
<path d="M29.3123 26.9684L27.4427 28.3122C26.2809 29.1474 24.8073 29.3147 23.5007 28.7598L21.1112 27.7448C19.762 27.1717 18.2416 27.2344 16.9398 27.9166L16.8735 27.9514C15.7003 28.5662 14.2995 28.5662 13.1265 27.9514L13.0601 27.9166C11.7583 27.2343 10.238 27.1717 8.88882 27.7448L6.49919 28.7598C5.19284 29.3147 3.71915 29.1474 2.55722 28.3122L0.687666 26.9684C0.487955 26.8248 0.214749 26.8776 0.0773559 27.0862C-0.060037 27.2948 -0.00953866 27.5803 0.190173 27.7238L2.05972 29.0677C2.91749 29.6843 3.9157 30 4.92274 30C5.56628 30 6.21346 29.871 6.8298 29.6092L9.21943 28.5942C10.3343 28.1206 11.5907 28.1724 12.6665 28.7362L12.7329 28.771C14.1526 29.515 15.8476 29.515 17.2671 28.771L17.3334 28.7362C18.4092 28.1724 19.6656 28.1206 20.7806 28.5942L23.1701 29.6092C24.7513 30.2807 26.5343 30.0782 27.9403 29.0676L29.8098 27.7238C30.0095 27.5802 30.06 27.2947 29.9226 27.0862C29.7852 26.8776 29.5118 26.8248 29.3123 26.9684Z" fill="#E31E24"/>
<path d="M20.3397 12.7472H20.7072C20.9496 12.7472 21.146 12.5419 21.146 12.2887C21.146 12.0355 20.9496 11.8302 20.7072 11.8302H20.3397C20.0973 11.8302 19.9009 12.0355 19.9009 12.2887C19.9009 12.5419 20.0974 12.7472 20.3397 12.7472Z" fill="#E31E24"/>
<path d="M9.66028 12.7472C9.90271 12.7472 10.0991 12.5419 10.0991 12.2887C10.0991 12.0355 9.90271 11.8302 9.66028 11.8302H9.29287C9.05044 11.8302 8.854 12.0355 8.854 12.2887C8.854 12.5419 9.05044 12.7472 9.29287 12.7472H9.66028Z" fill="#E31E24"/>
</svg>
