<svg width="33" height="30" viewBox="0 0 33 30" fill="none" xmlns="http://www.w3.org/2000/svg">
<path d="M28.6078 10.0013C28.5578 9.93248 28.4965 9.87744 28.4278 9.83978C28.3592 9.80212 28.2849 9.78271 28.2097 9.78281H20.2258C20.0846 9.78281 19.9493 9.85152 19.8494 9.97383C19.7496 10.0961 19.6935 10.262 19.6935 10.435V20.2178H18.629V10.435C18.629 10.262 18.573 10.0961 18.4731 9.97383C18.3733 9.85152 18.2379 9.78281 18.0968 9.78281H17.0323V0.652187C17.0323 0.479217 16.9762 0.31333 16.8764 0.191021C16.7765 0.0687125 16.6412 0 16.5 0H7.98387C7.84271 0 7.70733 0.0687125 7.60751 0.191021C7.50769 0.31333 7.45161 0.479217 7.45161 0.652187V2.60875H4.25806V3.91312H7.45161V9.78281H4.25806C4.1169 9.78281 3.98152 9.85152 3.8817 9.97383C3.78188 10.0961 3.72581 10.262 3.72581 10.435V12.3916H1.59677V13.6959H3.72581V16.3047H0V17.6091H3.72581V20.2178H1.06452C0.923353 20.2178 0.787971 20.2865 0.688153 20.4088C0.588335 20.5311 0.532258 20.697 0.532258 20.87V22.8266C0.391094 22.8266 0.255713 22.8953 0.155895 23.0176C0.056077 23.1399 0 23.3058 0 23.4787V26.0875C0 26.2605 0.056077 26.4264 0.155895 26.5487C0.255713 26.671 0.391094 26.7397 0.532258 26.7397H4.30597C4.43107 27.6511 4.8157 28.4787 5.39159 29.0756C5.96747 29.6725 6.69734 30 7.45161 30C8.20589 30 8.93576 29.6725 9.51164 29.0756C10.0875 28.4787 10.4722 27.6511 10.5973 26.7397H23.4673C23.5924 27.6511 23.977 28.4787 24.5529 29.0756C25.1288 29.6725 25.8586 30 26.6129 30C27.3672 30 28.097 29.6725 28.6729 29.0756C29.2488 28.4787 29.6335 27.6511 29.7585 26.7397H32.4677C32.6089 26.7397 32.7443 26.671 32.8441 26.5487C32.9439 26.4264 33 26.2605 33 26.0875V16.3047C32.9999 16.1449 32.9522 15.9907 32.8659 15.871L28.6078 10.0013ZM27.9707 11.0872L31.9355 16.5519V22.8266H28.3747C27.8527 22.4013 27.2398 22.1744 26.6129 22.1744C25.986 22.1744 25.3731 22.4013 24.8511 22.8266H20.7581V11.0872H27.9707ZM10.213 24.1309H23.8515C23.6607 24.534 23.5306 24.9758 23.4673 25.4353H10.5973C10.5339 24.9758 10.4038 24.534 10.213 24.1309ZM17.5645 20.2178H11.1774V11.0872H17.5645V20.2178ZM8.51613 3.91312H10.1129V2.60875H8.51613V1.30437H15.9677V9.78281H8.51613V3.91312ZM4.79032 17.6091H6.91936V16.3047H4.79032V13.6959H6.91936V12.3916H4.79032V11.0872H10.1129V20.2178H4.79032V17.6091ZM1.59677 21.5222H19.6935V22.8266H9.21339C8.69138 22.4013 8.07848 22.1744 7.45161 22.1744C6.82475 22.1744 6.21184 22.4013 5.68984 22.8266H1.59677V21.5222ZM1.06452 24.1309H4.69026C4.49945 24.534 4.36929 24.9758 4.30597 25.4353H1.06452V24.1309ZM7.45161 28.6962C7.03053 28.6962 6.6189 28.5432 6.26879 28.2566C5.91867 27.9699 5.64579 27.5625 5.48464 27.0858C5.3235 26.6091 5.28134 26.0846 5.36349 25.5786C5.44564 25.0725 5.64841 24.6077 5.94616 24.2428C6.24391 23.878 6.62327 23.6295 7.03626 23.5289C7.44925 23.4282 7.87733 23.4799 8.26636 23.6773C8.65539 23.8748 8.9879 24.2091 9.22184 24.6382C9.45578 25.0672 9.58065 25.5715 9.58065 26.0875C9.58065 26.7794 9.35634 27.4429 8.95707 27.9322C8.5578 28.4214 8.01627 28.6962 7.45161 28.6962ZM26.6129 28.6962C26.1918 28.6962 25.7802 28.5432 25.4301 28.2566C25.08 27.9699 24.8071 27.5625 24.6459 27.0858C24.4848 26.6091 24.4426 26.0846 24.5248 25.5786C24.6069 25.0725 24.8097 24.6077 25.1075 24.2428C25.4052 23.878 25.7846 23.6295 26.1976 23.5289C26.6105 23.4282 27.0386 23.4799 27.4277 23.6773C27.8167 23.8748 28.1492 24.2091 28.3831 24.6382C28.6171 25.0672 28.7419 25.5715 28.7419 26.0875C28.7419 26.7794 28.5176 27.4429 28.1184 27.9322C27.7191 28.4214 27.1776 28.6962 26.6129 28.6962ZM29.7585 25.4353C29.6952 24.9758 29.5651 24.534 29.3743 24.1309H31.9355V25.4353H29.7585Z" fill="#E31E24"/>
<path d="M22.3548 18.9135H28.7419C28.883 18.9135 29.0184 18.8448 29.1182 18.7225C29.218 18.6001 29.2741 18.4343 29.2741 18.2613V15.0004C29.2741 14.8274 29.218 14.6615 29.1182 14.5393L27.5214 12.5827C27.4216 12.4604 27.2862 12.3916 27.1451 12.3916H22.3548C22.2136 12.3916 22.0782 12.4603 21.9784 12.5826C21.8786 12.7049 21.8225 12.8708 21.8225 13.0438V18.2613C21.8225 18.4343 21.8786 18.6001 21.9784 18.7225C22.0782 18.8448 22.2136 18.9135 22.3548 18.9135ZM22.887 13.696H26.9247L28.2096 15.2704V17.6091H22.887V13.696Z" fill="#E31E24"/>
<path d="M6.3871 5.86969H0V7.17406H6.3871V5.86969Z" fill="#E31E24"/>
</svg>
